<mxfile host="Electron" modified="2023-06-11T01:04:08.054Z" agent="Mozilla/5.0 (Windows NT 10.0; Win64; x64) AppleWebKit/537.36 (KHTML, like Gecko) draw.io/21.3.7 Chrome/112.0.5615.204 Electron/24.5.0 Safari/537.36" etag="WY4HHmwys_uc5HZhbOyM" version="21.3.7" type="device">
  <diagram id="C5RBs43oDa-KdzZeNtuy" name="Page-1">
    <mxGraphModel dx="1969" dy="2162" grid="1" gridSize="10" guides="1" tooltips="1" connect="1" arrows="1" fold="1" page="1" pageScale="1" pageWidth="827" pageHeight="1169" math="0" shadow="0">
      <root>
        <mxCell id="WIyWlLk6GJQsqaUBKTNV-0" />
        <mxCell id="WIyWlLk6GJQsqaUBKTNV-1" parent="WIyWlLk6GJQsqaUBKTNV-0" />
        <mxCell id="yy_gVU0dqNNYbV7ipbau-27" value="" style="rounded=0;whiteSpace=wrap;html=1;" vertex="1" parent="WIyWlLk6GJQsqaUBKTNV-1">
          <mxGeometry x="373" y="-60" width="495" height="240" as="geometry" />
        </mxCell>
        <mxCell id="yy_gVU0dqNNYbV7ipbau-141" style="edgeStyle=orthogonalEdgeStyle;rounded=0;orthogonalLoop=1;jettySize=auto;html=1;entryX=0.2;entryY=0.49;entryDx=0;entryDy=0;entryPerimeter=0;" edge="1" parent="WIyWlLk6GJQsqaUBKTNV-1" source="yy_gVU0dqNNYbV7ipbau-0" target="yy_gVU0dqNNYbV7ipbau-11">
          <mxGeometry relative="1" as="geometry" />
        </mxCell>
        <mxCell id="yy_gVU0dqNNYbV7ipbau-0" value="" style="strokeWidth=2;html=1;shape=mxgraph.flowchart.start_2;whiteSpace=wrap;" vertex="1" parent="WIyWlLk6GJQsqaUBKTNV-1">
          <mxGeometry x="150" y="170.5" width="50" height="50" as="geometry" />
        </mxCell>
        <mxCell id="yy_gVU0dqNNYbV7ipbau-1" value="" style="ellipse;html=1;shape=endState;fillColor=#000000;strokeColor=#ff0000;" vertex="1" parent="WIyWlLk6GJQsqaUBKTNV-1">
          <mxGeometry x="1030" y="170.5" width="60" height="50" as="geometry" />
        </mxCell>
        <mxCell id="yy_gVU0dqNNYbV7ipbau-142" style="edgeStyle=orthogonalEdgeStyle;rounded=0;orthogonalLoop=1;jettySize=auto;html=1;entryX=0.004;entryY=0.392;entryDx=0;entryDy=0;entryPerimeter=0;" edge="1" parent="WIyWlLk6GJQsqaUBKTNV-1" source="yy_gVU0dqNNYbV7ipbau-11" target="yy_gVU0dqNNYbV7ipbau-27">
          <mxGeometry relative="1" as="geometry" />
        </mxCell>
        <mxCell id="yy_gVU0dqNNYbV7ipbau-144" style="edgeStyle=orthogonalEdgeStyle;rounded=0;orthogonalLoop=1;jettySize=auto;html=1;entryX=0;entryY=0.5;entryDx=0;entryDy=0;entryPerimeter=0;" edge="1" parent="WIyWlLk6GJQsqaUBKTNV-1" source="yy_gVU0dqNNYbV7ipbau-11" target="yy_gVU0dqNNYbV7ipbau-137">
          <mxGeometry relative="1" as="geometry" />
        </mxCell>
        <mxCell id="yy_gVU0dqNNYbV7ipbau-145" style="edgeStyle=orthogonalEdgeStyle;rounded=0;orthogonalLoop=1;jettySize=auto;html=1;entryX=0;entryY=0.5;entryDx=0;entryDy=0;entryPerimeter=0;" edge="1" parent="WIyWlLk6GJQsqaUBKTNV-1" source="yy_gVU0dqNNYbV7ipbau-11" target="yy_gVU0dqNNYbV7ipbau-138">
          <mxGeometry relative="1" as="geometry" />
        </mxCell>
        <mxCell id="yy_gVU0dqNNYbV7ipbau-146" style="edgeStyle=orthogonalEdgeStyle;rounded=0;orthogonalLoop=1;jettySize=auto;html=1;entryX=0;entryY=0.5;entryDx=0;entryDy=0;entryPerimeter=0;" edge="1" parent="WIyWlLk6GJQsqaUBKTNV-1" source="yy_gVU0dqNNYbV7ipbau-11" target="yy_gVU0dqNNYbV7ipbau-139">
          <mxGeometry relative="1" as="geometry" />
        </mxCell>
        <mxCell id="yy_gVU0dqNNYbV7ipbau-11" value="" style="html=1;points=[];perimeter=orthogonalPerimeter;fillColor=strokeColor;" vertex="1" parent="WIyWlLk6GJQsqaUBKTNV-1">
          <mxGeometry x="305" y="-50" width="5" height="500" as="geometry" />
        </mxCell>
        <mxCell id="yy_gVU0dqNNYbV7ipbau-30" value="&lt;b&gt;Atualizar Perfil&lt;/b&gt;" style="text;html=1;align=center;verticalAlign=middle;resizable=0;points=[];autosize=1;strokeColor=none;fillColor=none;" vertex="1" parent="WIyWlLk6GJQsqaUBKTNV-1">
          <mxGeometry x="511" y="-62" width="110" height="30" as="geometry" />
        </mxCell>
        <mxCell id="yy_gVU0dqNNYbV7ipbau-90" value="[Entrou como administrador]" style="text;html=1;align=center;verticalAlign=middle;resizable=0;points=[];autosize=1;strokeColor=none;fillColor=none;" vertex="1" parent="WIyWlLk6GJQsqaUBKTNV-1">
          <mxGeometry x="120" y="221.5" width="170" height="30" as="geometry" />
        </mxCell>
        <mxCell id="yy_gVU0dqNNYbV7ipbau-158" style="edgeStyle=orthogonalEdgeStyle;rounded=0;orthogonalLoop=1;jettySize=auto;html=1;entryX=0;entryY=0.5;entryDx=0;entryDy=0;" edge="1" parent="WIyWlLk6GJQsqaUBKTNV-1" source="yy_gVU0dqNNYbV7ipbau-91" target="yy_gVU0dqNNYbV7ipbau-151">
          <mxGeometry relative="1" as="geometry">
            <Array as="points">
              <mxPoint x="925" y="197" />
            </Array>
          </mxGeometry>
        </mxCell>
        <mxCell id="yy_gVU0dqNNYbV7ipbau-91" value="" style="html=1;points=[];perimeter=orthogonalPerimeter;fillColor=strokeColor;" vertex="1" parent="WIyWlLk6GJQsqaUBKTNV-1">
          <mxGeometry x="900" y="-50" width="5" height="500" as="geometry" />
        </mxCell>
        <mxCell id="yy_gVU0dqNNYbV7ipbau-114" value="" style="edgeStyle=orthogonalEdgeStyle;rounded=0;orthogonalLoop=1;jettySize=auto;html=1;" edge="1" parent="WIyWlLk6GJQsqaUBKTNV-1" source="yy_gVU0dqNNYbV7ipbau-116" target="yy_gVU0dqNNYbV7ipbau-119">
          <mxGeometry relative="1" as="geometry" />
        </mxCell>
        <mxCell id="yy_gVU0dqNNYbV7ipbau-124" style="edgeStyle=orthogonalEdgeStyle;rounded=0;orthogonalLoop=1;jettySize=auto;html=1;entryX=0.006;entryY=0.62;entryDx=0;entryDy=0;entryPerimeter=0;exitX=0.505;exitY=1.031;exitDx=0;exitDy=0;exitPerimeter=0;" edge="1" parent="WIyWlLk6GJQsqaUBKTNV-1">
          <mxGeometry relative="1" as="geometry">
            <mxPoint x="433.54999999999995" y="73.94500000000016" as="sourcePoint" />
            <mxPoint x="521.5899999999999" y="114.70000000000005" as="targetPoint" />
            <Array as="points">
              <mxPoint x="433.99" y="114.5" />
            </Array>
          </mxGeometry>
        </mxCell>
        <mxCell id="yy_gVU0dqNNYbV7ipbau-116" value="Dados &lt;br&gt;próprios&amp;nbsp;ou de &lt;br&gt;estudantes?" style="rhombus;whiteSpace=wrap;html=1;" vertex="1" parent="WIyWlLk6GJQsqaUBKTNV-1">
          <mxGeometry x="379" y="-21" width="110" height="95" as="geometry" />
        </mxCell>
        <mxCell id="yy_gVU0dqNNYbV7ipbau-117" value="[Próprios]" style="text;html=1;align=center;verticalAlign=middle;resizable=0;points=[];autosize=1;strokeColor=none;fillColor=none;rotation=0;" vertex="1" parent="WIyWlLk6GJQsqaUBKTNV-1">
          <mxGeometry x="431.99" y="89.5" width="70" height="30" as="geometry" />
        </mxCell>
        <mxCell id="yy_gVU0dqNNYbV7ipbau-123" style="edgeStyle=orthogonalEdgeStyle;rounded=0;orthogonalLoop=1;jettySize=auto;html=1;entryX=0.478;entryY=0.03;entryDx=0;entryDy=0;entryPerimeter=0;" edge="1" parent="WIyWlLk6GJQsqaUBKTNV-1" source="yy_gVU0dqNNYbV7ipbau-119" target="yy_gVU0dqNNYbV7ipbau-121">
          <mxGeometry relative="1" as="geometry" />
        </mxCell>
        <mxCell id="yy_gVU0dqNNYbV7ipbau-119" value="Informar o estudante" style="strokeWidth=2;html=1;shape=mxgraph.flowchart.terminator;whiteSpace=wrap;" vertex="1" parent="WIyWlLk6GJQsqaUBKTNV-1">
          <mxGeometry x="524" y="-4" width="100" height="60" as="geometry" />
        </mxCell>
        <mxCell id="yy_gVU0dqNNYbV7ipbau-120" value="[Estudantes]" style="text;html=1;align=center;verticalAlign=middle;resizable=0;points=[];autosize=1;strokeColor=none;fillColor=none;" vertex="1" parent="WIyWlLk6GJQsqaUBKTNV-1">
          <mxGeometry x="525" y="-32" width="90" height="30" as="geometry" />
        </mxCell>
        <mxCell id="yy_gVU0dqNNYbV7ipbau-132" style="edgeStyle=orthogonalEdgeStyle;rounded=0;orthogonalLoop=1;jettySize=auto;html=1;entryX=0;entryY=0.5;entryDx=0;entryDy=0;" edge="1" parent="WIyWlLk6GJQsqaUBKTNV-1" source="yy_gVU0dqNNYbV7ipbau-121" target="yy_gVU0dqNNYbV7ipbau-125">
          <mxGeometry relative="1" as="geometry" />
        </mxCell>
        <mxCell id="yy_gVU0dqNNYbV7ipbau-121" value="Informar dados a serem atualizados" style="strokeWidth=2;html=1;shape=mxgraph.flowchart.terminator;whiteSpace=wrap;" vertex="1" parent="WIyWlLk6GJQsqaUBKTNV-1">
          <mxGeometry x="521.99" y="80.5" width="109" height="60" as="geometry" />
        </mxCell>
        <mxCell id="yy_gVU0dqNNYbV7ipbau-126" style="edgeStyle=orthogonalEdgeStyle;rounded=0;orthogonalLoop=1;jettySize=auto;html=1;entryX=0.5;entryY=1;entryDx=0;entryDy=0;entryPerimeter=0;" edge="1" parent="WIyWlLk6GJQsqaUBKTNV-1" source="yy_gVU0dqNNYbV7ipbau-125" target="yy_gVU0dqNNYbV7ipbau-121">
          <mxGeometry relative="1" as="geometry">
            <Array as="points">
              <mxPoint x="690.99" y="164.5" />
              <mxPoint x="576.99" y="164.5" />
            </Array>
          </mxGeometry>
        </mxCell>
        <mxCell id="yy_gVU0dqNNYbV7ipbau-135" style="edgeStyle=orthogonalEdgeStyle;rounded=0;orthogonalLoop=1;jettySize=auto;html=1;exitX=1;exitY=0.5;exitDx=0;exitDy=0;entryX=0;entryY=0.5;entryDx=0;entryDy=0;entryPerimeter=0;" edge="1" parent="WIyWlLk6GJQsqaUBKTNV-1" source="yy_gVU0dqNNYbV7ipbau-125" target="yy_gVU0dqNNYbV7ipbau-134">
          <mxGeometry relative="1" as="geometry" />
        </mxCell>
        <mxCell id="yy_gVU0dqNNYbV7ipbau-125" value="Validar&lt;br&gt;Dados" style="rhombus;whiteSpace=wrap;html=1;" vertex="1" parent="WIyWlLk6GJQsqaUBKTNV-1">
          <mxGeometry x="656.99" y="77.5" width="68" height="67" as="geometry" />
        </mxCell>
        <mxCell id="yy_gVU0dqNNYbV7ipbau-127" value="[Dados inválidos]" style="text;html=1;align=center;verticalAlign=middle;resizable=0;points=[];autosize=1;strokeColor=none;fillColor=none;" vertex="1" parent="WIyWlLk6GJQsqaUBKTNV-1">
          <mxGeometry x="580.99" y="140.5" width="110" height="30" as="geometry" />
        </mxCell>
        <mxCell id="yy_gVU0dqNNYbV7ipbau-134" value="Efetivar atualização dos dados" style="strokeWidth=2;html=1;shape=mxgraph.flowchart.terminator;whiteSpace=wrap;" vertex="1" parent="WIyWlLk6GJQsqaUBKTNV-1">
          <mxGeometry x="740.99" y="81" width="100" height="60" as="geometry" />
        </mxCell>
        <mxCell id="yy_gVU0dqNNYbV7ipbau-136" value="[Dados Válidos]" style="text;html=1;align=center;verticalAlign=middle;resizable=0;points=[];autosize=1;strokeColor=none;fillColor=none;" vertex="1" parent="WIyWlLk6GJQsqaUBKTNV-1">
          <mxGeometry x="708" y="140" width="110" height="30" as="geometry" />
        </mxCell>
        <mxCell id="yy_gVU0dqNNYbV7ipbau-147" style="edgeStyle=orthogonalEdgeStyle;rounded=0;orthogonalLoop=1;jettySize=auto;html=1;entryX=0.6;entryY=0.599;entryDx=0;entryDy=0;entryPerimeter=0;" edge="1" parent="WIyWlLk6GJQsqaUBKTNV-1" source="yy_gVU0dqNNYbV7ipbau-137" target="yy_gVU0dqNNYbV7ipbau-91">
          <mxGeometry relative="1" as="geometry" />
        </mxCell>
        <mxCell id="yy_gVU0dqNNYbV7ipbau-137" value="Cadastrar Questão" style="strokeWidth=2;html=1;shape=mxgraph.flowchart.terminator;whiteSpace=wrap;" vertex="1" parent="WIyWlLk6GJQsqaUBKTNV-1">
          <mxGeometry x="372" y="220" width="100" height="60" as="geometry" />
        </mxCell>
        <mxCell id="yy_gVU0dqNNYbV7ipbau-148" style="edgeStyle=orthogonalEdgeStyle;rounded=0;orthogonalLoop=1;jettySize=auto;html=1;entryX=0.029;entryY=0.741;entryDx=0;entryDy=0;entryPerimeter=0;" edge="1" parent="WIyWlLk6GJQsqaUBKTNV-1" source="yy_gVU0dqNNYbV7ipbau-138" target="yy_gVU0dqNNYbV7ipbau-91">
          <mxGeometry relative="1" as="geometry" />
        </mxCell>
        <mxCell id="yy_gVU0dqNNYbV7ipbau-138" value="Cadastrar Vídeo Aula" style="strokeWidth=2;html=1;shape=mxgraph.flowchart.terminator;whiteSpace=wrap;" vertex="1" parent="WIyWlLk6GJQsqaUBKTNV-1">
          <mxGeometry x="374" y="290" width="100" height="60" as="geometry" />
        </mxCell>
        <mxCell id="yy_gVU0dqNNYbV7ipbau-149" style="edgeStyle=orthogonalEdgeStyle;rounded=0;orthogonalLoop=1;jettySize=auto;html=1;entryX=0.029;entryY=0.884;entryDx=0;entryDy=0;entryPerimeter=0;" edge="1" parent="WIyWlLk6GJQsqaUBKTNV-1" source="yy_gVU0dqNNYbV7ipbau-139" target="yy_gVU0dqNNYbV7ipbau-91">
          <mxGeometry relative="1" as="geometry" />
        </mxCell>
        <mxCell id="yy_gVU0dqNNYbV7ipbau-139" value="Apurar Solicitações" style="strokeWidth=2;html=1;shape=mxgraph.flowchart.terminator;whiteSpace=wrap;" vertex="1" parent="WIyWlLk6GJQsqaUBKTNV-1">
          <mxGeometry x="372" y="362" width="100" height="60" as="geometry" />
        </mxCell>
        <mxCell id="yy_gVU0dqNNYbV7ipbau-152" style="edgeStyle=orthogonalEdgeStyle;rounded=0;orthogonalLoop=1;jettySize=auto;html=1;exitX=1;exitY=0.5;exitDx=0;exitDy=0;" edge="1" parent="WIyWlLk6GJQsqaUBKTNV-1" source="yy_gVU0dqNNYbV7ipbau-151" target="yy_gVU0dqNNYbV7ipbau-1">
          <mxGeometry relative="1" as="geometry" />
        </mxCell>
        <mxCell id="yy_gVU0dqNNYbV7ipbau-153" style="edgeStyle=orthogonalEdgeStyle;rounded=0;orthogonalLoop=1;jettySize=auto;html=1;entryX=0.5;entryY=-0.002;entryDx=0;entryDy=0;entryPerimeter=0;exitX=0.5;exitY=0;exitDx=0;exitDy=0;" edge="1" parent="WIyWlLk6GJQsqaUBKTNV-1" source="yy_gVU0dqNNYbV7ipbau-151" target="yy_gVU0dqNNYbV7ipbau-11">
          <mxGeometry relative="1" as="geometry">
            <Array as="points">
              <mxPoint x="970" y="-70" />
              <mxPoint x="308" y="-70" />
            </Array>
          </mxGeometry>
        </mxCell>
        <mxCell id="yy_gVU0dqNNYbV7ipbau-151" value="Sair?" style="rhombus;whiteSpace=wrap;html=1;" vertex="1" parent="WIyWlLk6GJQsqaUBKTNV-1">
          <mxGeometry x="940" y="166.5" width="60" height="60" as="geometry" />
        </mxCell>
        <mxCell id="yy_gVU0dqNNYbV7ipbau-154" value="[SIM]" style="text;html=1;align=center;verticalAlign=middle;resizable=0;points=[];autosize=1;strokeColor=none;fillColor=none;" vertex="1" parent="WIyWlLk6GJQsqaUBKTNV-1">
          <mxGeometry x="990" y="196.5" width="50" height="30" as="geometry" />
        </mxCell>
        <mxCell id="yy_gVU0dqNNYbV7ipbau-155" value="[NÃO]" style="text;html=1;align=center;verticalAlign=middle;resizable=0;points=[];autosize=1;strokeColor=none;fillColor=none;rotation=-90;" vertex="1" parent="WIyWlLk6GJQsqaUBKTNV-1">
          <mxGeometry x="930" y="95.5" width="60" height="30" as="geometry" />
        </mxCell>
      </root>
    </mxGraphModel>
  </diagram>
</mxfile>
